<mxfile host="app.diagrams.net" modified="2021-06-04T20:33:34.389Z" agent="5.0 (Windows NT 10.0; Win64; x64) AppleWebKit/537.36 (KHTML, like Gecko) Chrome/89.0.4389.128 Safari/537.36 OPR/75.0.3969.279" etag="7GcM4C83mAGtZKz2hvsY" version="14.6.10" type="github">
  <diagram id="C5RBs43oDa-KdzZeNtuy" name="Page-1">
    <mxGraphModel dx="1973" dy="1091" grid="1" gridSize="10" guides="1" tooltips="1" connect="1" arrows="1" fold="1" page="1" pageScale="1" pageWidth="827" pageHeight="1169" math="0" shadow="0">
      <root>
        <mxCell id="WIyWlLk6GJQsqaUBKTNV-0" />
        <mxCell id="WIyWlLk6GJQsqaUBKTNV-1" parent="WIyWlLk6GJQsqaUBKTNV-0" />
        <mxCell id="4dJDkmnBJsWm2NZpvlQx-30" style="edgeStyle=orthogonalEdgeStyle;rounded=0;orthogonalLoop=1;jettySize=auto;html=1;exitX=0;exitY=0.5;exitDx=0;exitDy=0;endArrow=none;endFill=0;" edge="1" parent="WIyWlLk6GJQsqaUBKTNV-1" source="4dJDkmnBJsWm2NZpvlQx-0">
          <mxGeometry relative="1" as="geometry">
            <mxPoint x="100" y="145" as="targetPoint" />
            <Array as="points">
              <mxPoint x="130" y="150" />
              <mxPoint x="100" y="150" />
            </Array>
          </mxGeometry>
        </mxCell>
        <mxCell id="4dJDkmnBJsWm2NZpvlQx-39" style="edgeStyle=orthogonalEdgeStyle;rounded=0;orthogonalLoop=1;jettySize=auto;html=1;exitX=1;exitY=0.5;exitDx=0;exitDy=0;entryX=0;entryY=0.5;entryDx=0;entryDy=0;endArrow=none;endFill=0;" edge="1" parent="WIyWlLk6GJQsqaUBKTNV-1" source="4dJDkmnBJsWm2NZpvlQx-0" target="4dJDkmnBJsWm2NZpvlQx-38">
          <mxGeometry relative="1" as="geometry" />
        </mxCell>
        <mxCell id="4dJDkmnBJsWm2NZpvlQx-0" value="Venta" style="rounded=0;whiteSpace=wrap;html=1;" vertex="1" parent="WIyWlLk6GJQsqaUBKTNV-1">
          <mxGeometry x="130" y="130" width="100" height="30" as="geometry" />
        </mxCell>
        <mxCell id="4dJDkmnBJsWm2NZpvlQx-53" style="edgeStyle=orthogonalEdgeStyle;rounded=0;orthogonalLoop=1;jettySize=auto;html=1;exitX=0;exitY=0.5;exitDx=0;exitDy=0;endArrow=none;endFill=0;" edge="1" parent="WIyWlLk6GJQsqaUBKTNV-1" source="4dJDkmnBJsWm2NZpvlQx-1">
          <mxGeometry relative="1" as="geometry">
            <mxPoint x="120" y="355" as="targetPoint" />
            <Array as="points">
              <mxPoint x="180" y="370" />
              <mxPoint x="120" y="370" />
            </Array>
          </mxGeometry>
        </mxCell>
        <mxCell id="4dJDkmnBJsWm2NZpvlQx-60" style="edgeStyle=orthogonalEdgeStyle;rounded=0;orthogonalLoop=1;jettySize=auto;html=1;exitX=1;exitY=0.5;exitDx=0;exitDy=0;endArrow=none;endFill=0;" edge="1" parent="WIyWlLk6GJQsqaUBKTNV-1" source="4dJDkmnBJsWm2NZpvlQx-1" target="4dJDkmnBJsWm2NZpvlQx-59">
          <mxGeometry relative="1" as="geometry" />
        </mxCell>
        <mxCell id="4dJDkmnBJsWm2NZpvlQx-1" value="detalledeventa" style="rounded=0;whiteSpace=wrap;html=1;" vertex="1" parent="WIyWlLk6GJQsqaUBKTNV-1">
          <mxGeometry x="160" y="350" width="100" height="30" as="geometry" />
        </mxCell>
        <mxCell id="4dJDkmnBJsWm2NZpvlQx-31" style="edgeStyle=orthogonalEdgeStyle;rounded=0;orthogonalLoop=1;jettySize=auto;html=1;exitX=1;exitY=0.5;exitDx=0;exitDy=0;endArrow=none;endFill=0;" edge="1" parent="WIyWlLk6GJQsqaUBKTNV-1" source="4dJDkmnBJsWm2NZpvlQx-2">
          <mxGeometry relative="1" as="geometry">
            <mxPoint x="670" y="145" as="targetPoint" />
          </mxGeometry>
        </mxCell>
        <mxCell id="4dJDkmnBJsWm2NZpvlQx-40" style="edgeStyle=orthogonalEdgeStyle;rounded=0;orthogonalLoop=1;jettySize=auto;html=1;exitX=0;exitY=0.5;exitDx=0;exitDy=0;entryX=1;entryY=0.5;entryDx=0;entryDy=0;endArrow=none;endFill=0;" edge="1" parent="WIyWlLk6GJQsqaUBKTNV-1" source="4dJDkmnBJsWm2NZpvlQx-2" target="4dJDkmnBJsWm2NZpvlQx-38">
          <mxGeometry relative="1" as="geometry" />
        </mxCell>
        <mxCell id="4dJDkmnBJsWm2NZpvlQx-2" value="producto" style="rounded=0;whiteSpace=wrap;html=1;" vertex="1" parent="WIyWlLk6GJQsqaUBKTNV-1">
          <mxGeometry x="514" y="130" width="100" height="30" as="geometry" />
        </mxCell>
        <mxCell id="4dJDkmnBJsWm2NZpvlQx-73" style="edgeStyle=orthogonalEdgeStyle;rounded=0;orthogonalLoop=1;jettySize=auto;html=1;exitX=1;exitY=0.5;exitDx=0;exitDy=0;endArrow=none;endFill=0;" edge="1" parent="WIyWlLk6GJQsqaUBKTNV-1" source="4dJDkmnBJsWm2NZpvlQx-3">
          <mxGeometry relative="1" as="geometry">
            <mxPoint x="700" y="365" as="targetPoint" />
          </mxGeometry>
        </mxCell>
        <mxCell id="4dJDkmnBJsWm2NZpvlQx-92" style="edgeStyle=orthogonalEdgeStyle;rounded=0;orthogonalLoop=1;jettySize=auto;html=1;exitX=0.5;exitY=1;exitDx=0;exitDy=0;entryX=1;entryY=0.5;entryDx=0;entryDy=0;endArrow=none;endFill=0;" edge="1" parent="WIyWlLk6GJQsqaUBKTNV-1" source="4dJDkmnBJsWm2NZpvlQx-3" target="4dJDkmnBJsWm2NZpvlQx-90">
          <mxGeometry relative="1" as="geometry" />
        </mxCell>
        <mxCell id="4dJDkmnBJsWm2NZpvlQx-3" value="cliente" style="rounded=0;whiteSpace=wrap;html=1;" vertex="1" parent="WIyWlLk6GJQsqaUBKTNV-1">
          <mxGeometry x="550" y="350" width="100" height="30" as="geometry" />
        </mxCell>
        <mxCell id="4dJDkmnBJsWm2NZpvlQx-85" style="edgeStyle=orthogonalEdgeStyle;rounded=0;orthogonalLoop=1;jettySize=auto;html=1;exitX=0;exitY=0.5;exitDx=0;exitDy=0;endArrow=none;endFill=0;" edge="1" parent="WIyWlLk6GJQsqaUBKTNV-1" source="4dJDkmnBJsWm2NZpvlQx-4">
          <mxGeometry relative="1" as="geometry">
            <mxPoint x="110" y="555" as="targetPoint" />
          </mxGeometry>
        </mxCell>
        <mxCell id="4dJDkmnBJsWm2NZpvlQx-104" style="edgeStyle=orthogonalEdgeStyle;rounded=0;orthogonalLoop=1;jettySize=auto;html=1;exitX=0.5;exitY=1;exitDx=0;exitDy=0;entryX=0.5;entryY=0;entryDx=0;entryDy=0;endArrow=none;endFill=0;" edge="1" parent="WIyWlLk6GJQsqaUBKTNV-1" source="4dJDkmnBJsWm2NZpvlQx-4" target="4dJDkmnBJsWm2NZpvlQx-94">
          <mxGeometry relative="1" as="geometry" />
        </mxCell>
        <mxCell id="4dJDkmnBJsWm2NZpvlQx-124" style="edgeStyle=orthogonalEdgeStyle;rounded=0;orthogonalLoop=1;jettySize=auto;html=1;exitX=1;exitY=0.5;exitDx=0;exitDy=0;entryX=0.5;entryY=0;entryDx=0;entryDy=0;endArrow=none;endFill=0;" edge="1" parent="WIyWlLk6GJQsqaUBKTNV-1" source="4dJDkmnBJsWm2NZpvlQx-4" target="4dJDkmnBJsWm2NZpvlQx-123">
          <mxGeometry relative="1" as="geometry" />
        </mxCell>
        <mxCell id="4dJDkmnBJsWm2NZpvlQx-4" value="paciente" style="rounded=0;whiteSpace=wrap;html=1;" vertex="1" parent="WIyWlLk6GJQsqaUBKTNV-1">
          <mxGeometry x="150" y="540" width="100" height="30" as="geometry" />
        </mxCell>
        <mxCell id="4dJDkmnBJsWm2NZpvlQx-116" style="edgeStyle=orthogonalEdgeStyle;rounded=0;orthogonalLoop=1;jettySize=auto;html=1;exitX=1;exitY=0.5;exitDx=0;exitDy=0;endArrow=none;endFill=0;" edge="1" parent="WIyWlLk6GJQsqaUBKTNV-1" source="4dJDkmnBJsWm2NZpvlQx-5">
          <mxGeometry relative="1" as="geometry">
            <mxPoint x="670" y="640" as="targetPoint" />
          </mxGeometry>
        </mxCell>
        <mxCell id="4dJDkmnBJsWm2NZpvlQx-125" style="edgeStyle=orthogonalEdgeStyle;rounded=0;orthogonalLoop=1;jettySize=auto;html=1;exitX=0;exitY=0.5;exitDx=0;exitDy=0;entryX=1;entryY=0.5;entryDx=0;entryDy=0;endArrow=none;endFill=0;" edge="1" parent="WIyWlLk6GJQsqaUBKTNV-1" source="4dJDkmnBJsWm2NZpvlQx-5" target="4dJDkmnBJsWm2NZpvlQx-123">
          <mxGeometry relative="1" as="geometry" />
        </mxCell>
        <mxCell id="4dJDkmnBJsWm2NZpvlQx-138" style="edgeStyle=orthogonalEdgeStyle;rounded=0;orthogonalLoop=1;jettySize=auto;html=1;exitX=0.5;exitY=1;exitDx=0;exitDy=0;endArrow=none;endFill=0;" edge="1" parent="WIyWlLk6GJQsqaUBKTNV-1" source="4dJDkmnBJsWm2NZpvlQx-5" target="4dJDkmnBJsWm2NZpvlQx-137">
          <mxGeometry relative="1" as="geometry" />
        </mxCell>
        <mxCell id="4dJDkmnBJsWm2NZpvlQx-5" value="consulta" style="rounded=0;whiteSpace=wrap;html=1;" vertex="1" parent="WIyWlLk6GJQsqaUBKTNV-1">
          <mxGeometry x="540" y="625" width="100" height="30" as="geometry" />
        </mxCell>
        <mxCell id="4dJDkmnBJsWm2NZpvlQx-99" style="edgeStyle=orthogonalEdgeStyle;rounded=0;orthogonalLoop=1;jettySize=auto;html=1;exitX=0;exitY=0.5;exitDx=0;exitDy=0;endArrow=none;endFill=0;" edge="1" parent="WIyWlLk6GJQsqaUBKTNV-1" source="4dJDkmnBJsWm2NZpvlQx-6">
          <mxGeometry relative="1" as="geometry">
            <mxPoint x="110" y="775" as="targetPoint" />
          </mxGeometry>
        </mxCell>
        <mxCell id="4dJDkmnBJsWm2NZpvlQx-106" style="edgeStyle=orthogonalEdgeStyle;rounded=0;orthogonalLoop=1;jettySize=auto;html=1;exitX=0.5;exitY=0;exitDx=0;exitDy=0;entryX=0.5;entryY=1;entryDx=0;entryDy=0;endArrow=none;endFill=0;" edge="1" parent="WIyWlLk6GJQsqaUBKTNV-1" source="4dJDkmnBJsWm2NZpvlQx-6" target="4dJDkmnBJsWm2NZpvlQx-94">
          <mxGeometry relative="1" as="geometry" />
        </mxCell>
        <mxCell id="4dJDkmnBJsWm2NZpvlQx-6" value="mascota" style="rounded=0;whiteSpace=wrap;html=1;" vertex="1" parent="WIyWlLk6GJQsqaUBKTNV-1">
          <mxGeometry x="150" y="760" width="100" height="30" as="geometry" />
        </mxCell>
        <mxCell id="4dJDkmnBJsWm2NZpvlQx-133" style="edgeStyle=orthogonalEdgeStyle;rounded=0;orthogonalLoop=1;jettySize=auto;html=1;exitX=1;exitY=0.5;exitDx=0;exitDy=0;entryX=0;entryY=0.5;entryDx=0;entryDy=0;endArrow=none;endFill=0;" edge="1" parent="WIyWlLk6GJQsqaUBKTNV-1" source="4dJDkmnBJsWm2NZpvlQx-7" target="4dJDkmnBJsWm2NZpvlQx-128">
          <mxGeometry relative="1" as="geometry" />
        </mxCell>
        <mxCell id="4dJDkmnBJsWm2NZpvlQx-139" style="edgeStyle=orthogonalEdgeStyle;rounded=0;orthogonalLoop=1;jettySize=auto;html=1;exitX=0.5;exitY=0;exitDx=0;exitDy=0;entryX=0.5;entryY=1;entryDx=0;entryDy=0;endArrow=none;endFill=0;" edge="1" parent="WIyWlLk6GJQsqaUBKTNV-1" source="4dJDkmnBJsWm2NZpvlQx-7" target="4dJDkmnBJsWm2NZpvlQx-137">
          <mxGeometry relative="1" as="geometry" />
        </mxCell>
        <mxCell id="4dJDkmnBJsWm2NZpvlQx-149" style="edgeStyle=orthogonalEdgeStyle;rounded=0;orthogonalLoop=1;jettySize=auto;html=1;exitX=0;exitY=0.5;exitDx=0;exitDy=0;entryX=1;entryY=0.5;entryDx=0;entryDy=0;endArrow=none;endFill=0;" edge="1" parent="WIyWlLk6GJQsqaUBKTNV-1" source="4dJDkmnBJsWm2NZpvlQx-7" target="4dJDkmnBJsWm2NZpvlQx-148">
          <mxGeometry relative="1" as="geometry" />
        </mxCell>
        <mxCell id="4dJDkmnBJsWm2NZpvlQx-7" value="medico" style="rounded=0;whiteSpace=wrap;html=1;" vertex="1" parent="WIyWlLk6GJQsqaUBKTNV-1">
          <mxGeometry x="540" y="885" width="100" height="30" as="geometry" />
        </mxCell>
        <mxCell id="4dJDkmnBJsWm2NZpvlQx-145" style="edgeStyle=orthogonalEdgeStyle;rounded=0;orthogonalLoop=1;jettySize=auto;html=1;exitX=0;exitY=0.5;exitDx=0;exitDy=0;endArrow=none;endFill=0;" edge="1" parent="WIyWlLk6GJQsqaUBKTNV-1" source="4dJDkmnBJsWm2NZpvlQx-8">
          <mxGeometry relative="1" as="geometry">
            <mxPoint x="250" y="900" as="targetPoint" />
          </mxGeometry>
        </mxCell>
        <mxCell id="4dJDkmnBJsWm2NZpvlQx-150" style="edgeStyle=orthogonalEdgeStyle;rounded=0;orthogonalLoop=1;jettySize=auto;html=1;exitX=1;exitY=0.5;exitDx=0;exitDy=0;entryX=0;entryY=0.5;entryDx=0;entryDy=0;endArrow=none;endFill=0;" edge="1" parent="WIyWlLk6GJQsqaUBKTNV-1" source="4dJDkmnBJsWm2NZpvlQx-8" target="4dJDkmnBJsWm2NZpvlQx-148">
          <mxGeometry relative="1" as="geometry" />
        </mxCell>
        <mxCell id="4dJDkmnBJsWm2NZpvlQx-8" value="especialidad" style="rounded=0;whiteSpace=wrap;html=1;" vertex="1" parent="WIyWlLk6GJQsqaUBKTNV-1">
          <mxGeometry x="253" y="885" width="100" height="30" as="geometry" />
        </mxCell>
        <mxCell id="4dJDkmnBJsWm2NZpvlQx-19" style="edgeStyle=orthogonalEdgeStyle;rounded=0;orthogonalLoop=1;jettySize=auto;html=1;exitX=1;exitY=0.5;exitDx=0;exitDy=0;endArrow=none;endFill=0;" edge="1" parent="WIyWlLk6GJQsqaUBKTNV-1" source="4dJDkmnBJsWm2NZpvlQx-9">
          <mxGeometry relative="1" as="geometry">
            <mxPoint x="100" y="140" as="targetPoint" />
          </mxGeometry>
        </mxCell>
        <mxCell id="4dJDkmnBJsWm2NZpvlQx-9" value="id_venta" style="ellipse;whiteSpace=wrap;html=1;" vertex="1" parent="WIyWlLk6GJQsqaUBKTNV-1">
          <mxGeometry x="20" y="80" width="60" height="40" as="geometry" />
        </mxCell>
        <mxCell id="4dJDkmnBJsWm2NZpvlQx-20" style="edgeStyle=orthogonalEdgeStyle;rounded=0;orthogonalLoop=1;jettySize=auto;html=1;exitX=1;exitY=0.5;exitDx=0;exitDy=0;endArrow=none;endFill=0;" edge="1" parent="WIyWlLk6GJQsqaUBKTNV-1" source="4dJDkmnBJsWm2NZpvlQx-10">
          <mxGeometry relative="1" as="geometry">
            <mxPoint x="100" y="140" as="targetPoint" />
          </mxGeometry>
        </mxCell>
        <mxCell id="4dJDkmnBJsWm2NZpvlQx-10" value="monto" style="ellipse;whiteSpace=wrap;html=1;" vertex="1" parent="WIyWlLk6GJQsqaUBKTNV-1">
          <mxGeometry x="20" y="130" width="60" height="40" as="geometry" />
        </mxCell>
        <mxCell id="4dJDkmnBJsWm2NZpvlQx-22" style="edgeStyle=orthogonalEdgeStyle;rounded=0;orthogonalLoop=1;jettySize=auto;html=1;exitX=1;exitY=0.5;exitDx=0;exitDy=0;endArrow=none;endFill=0;" edge="1" parent="WIyWlLk6GJQsqaUBKTNV-1" source="4dJDkmnBJsWm2NZpvlQx-11">
          <mxGeometry relative="1" as="geometry">
            <mxPoint x="100" y="140" as="targetPoint" />
            <Array as="points">
              <mxPoint x="100" y="205" />
            </Array>
          </mxGeometry>
        </mxCell>
        <mxCell id="4dJDkmnBJsWm2NZpvlQx-11" value="fecha_venta" style="ellipse;whiteSpace=wrap;html=1;" vertex="1" parent="WIyWlLk6GJQsqaUBKTNV-1">
          <mxGeometry x="10" y="180" width="80" height="50" as="geometry" />
        </mxCell>
        <mxCell id="4dJDkmnBJsWm2NZpvlQx-33" style="edgeStyle=orthogonalEdgeStyle;rounded=0;orthogonalLoop=1;jettySize=auto;html=1;exitX=0;exitY=0.5;exitDx=0;exitDy=0;endArrow=none;endFill=0;" edge="1" parent="WIyWlLk6GJQsqaUBKTNV-1" source="4dJDkmnBJsWm2NZpvlQx-12">
          <mxGeometry relative="1" as="geometry">
            <mxPoint x="670" y="150" as="targetPoint" />
          </mxGeometry>
        </mxCell>
        <mxCell id="4dJDkmnBJsWm2NZpvlQx-12" value="id_producto" style="ellipse;whiteSpace=wrap;html=1;" vertex="1" parent="WIyWlLk6GJQsqaUBKTNV-1">
          <mxGeometry x="710" y="70" width="70" height="40" as="geometry" />
        </mxCell>
        <mxCell id="4dJDkmnBJsWm2NZpvlQx-32" style="edgeStyle=orthogonalEdgeStyle;rounded=0;orthogonalLoop=1;jettySize=auto;html=1;exitX=0;exitY=0.5;exitDx=0;exitDy=0;endArrow=none;endFill=0;" edge="1" parent="WIyWlLk6GJQsqaUBKTNV-1" source="4dJDkmnBJsWm2NZpvlQx-13">
          <mxGeometry relative="1" as="geometry">
            <mxPoint x="670" y="150" as="targetPoint" />
          </mxGeometry>
        </mxCell>
        <mxCell id="4dJDkmnBJsWm2NZpvlQx-13" value="&lt;font style=&quot;font-size: 10px&quot;&gt;nombre_producto&lt;/font&gt;" style="ellipse;whiteSpace=wrap;html=1;" vertex="1" parent="WIyWlLk6GJQsqaUBKTNV-1">
          <mxGeometry x="702.5" y="10" width="85" height="50" as="geometry" />
        </mxCell>
        <mxCell id="4dJDkmnBJsWm2NZpvlQx-34" style="edgeStyle=orthogonalEdgeStyle;rounded=0;orthogonalLoop=1;jettySize=auto;html=1;exitX=0;exitY=0.5;exitDx=0;exitDy=0;endArrow=none;endFill=0;" edge="1" parent="WIyWlLk6GJQsqaUBKTNV-1" source="4dJDkmnBJsWm2NZpvlQx-14">
          <mxGeometry relative="1" as="geometry">
            <mxPoint x="670" y="140" as="targetPoint" />
            <Array as="points">
              <mxPoint x="710" y="140" />
            </Array>
          </mxGeometry>
        </mxCell>
        <mxCell id="4dJDkmnBJsWm2NZpvlQx-14" value="cantidad" style="ellipse;whiteSpace=wrap;html=1;" vertex="1" parent="WIyWlLk6GJQsqaUBKTNV-1">
          <mxGeometry x="710" y="115" width="70" height="40" as="geometry" />
        </mxCell>
        <mxCell id="4dJDkmnBJsWm2NZpvlQx-35" style="edgeStyle=orthogonalEdgeStyle;rounded=0;orthogonalLoop=1;jettySize=auto;html=1;exitX=0;exitY=0.5;exitDx=0;exitDy=0;endArrow=none;endFill=0;" edge="1" parent="WIyWlLk6GJQsqaUBKTNV-1" source="4dJDkmnBJsWm2NZpvlQx-15">
          <mxGeometry relative="1" as="geometry">
            <mxPoint x="670" y="150" as="targetPoint" />
          </mxGeometry>
        </mxCell>
        <mxCell id="4dJDkmnBJsWm2NZpvlQx-15" value="precio" style="ellipse;whiteSpace=wrap;html=1;" vertex="1" parent="WIyWlLk6GJQsqaUBKTNV-1">
          <mxGeometry x="710" y="160" width="70" height="40" as="geometry" />
        </mxCell>
        <mxCell id="4dJDkmnBJsWm2NZpvlQx-36" style="edgeStyle=orthogonalEdgeStyle;rounded=0;orthogonalLoop=1;jettySize=auto;html=1;exitX=0;exitY=0.5;exitDx=0;exitDy=0;endArrow=none;endFill=0;" edge="1" parent="WIyWlLk6GJQsqaUBKTNV-1" source="4dJDkmnBJsWm2NZpvlQx-16">
          <mxGeometry relative="1" as="geometry">
            <mxPoint x="670" y="180" as="targetPoint" />
          </mxGeometry>
        </mxCell>
        <mxCell id="4dJDkmnBJsWm2NZpvlQx-16" value="info" style="ellipse;whiteSpace=wrap;html=1;" vertex="1" parent="WIyWlLk6GJQsqaUBKTNV-1">
          <mxGeometry x="710" y="210" width="70" height="40" as="geometry" />
        </mxCell>
        <mxCell id="4dJDkmnBJsWm2NZpvlQx-37" style="edgeStyle=orthogonalEdgeStyle;rounded=0;orthogonalLoop=1;jettySize=auto;html=1;exitX=0;exitY=0.5;exitDx=0;exitDy=0;endArrow=none;endFill=0;" edge="1" parent="WIyWlLk6GJQsqaUBKTNV-1" source="4dJDkmnBJsWm2NZpvlQx-17">
          <mxGeometry relative="1" as="geometry">
            <mxPoint x="670" y="230" as="targetPoint" />
          </mxGeometry>
        </mxCell>
        <mxCell id="4dJDkmnBJsWm2NZpvlQx-17" value="tipoproducto" style="ellipse;whiteSpace=wrap;html=1;" vertex="1" parent="WIyWlLk6GJQsqaUBKTNV-1">
          <mxGeometry x="710" y="260" width="70" height="40" as="geometry" />
        </mxCell>
        <mxCell id="4dJDkmnBJsWm2NZpvlQx-42" style="edgeStyle=orthogonalEdgeStyle;rounded=0;orthogonalLoop=1;jettySize=auto;html=1;exitX=0.5;exitY=1;exitDx=0;exitDy=0;entryX=0.5;entryY=0;entryDx=0;entryDy=0;endArrow=none;endFill=0;" edge="1" parent="WIyWlLk6GJQsqaUBKTNV-1" source="4dJDkmnBJsWm2NZpvlQx-38" target="4dJDkmnBJsWm2NZpvlQx-1">
          <mxGeometry relative="1" as="geometry" />
        </mxCell>
        <mxCell id="4dJDkmnBJsWm2NZpvlQx-38" value="Integran" style="rhombus;whiteSpace=wrap;html=1;" vertex="1" parent="WIyWlLk6GJQsqaUBKTNV-1">
          <mxGeometry x="320" y="120" width="106" height="50" as="geometry" />
        </mxCell>
        <mxCell id="4dJDkmnBJsWm2NZpvlQx-54" style="edgeStyle=orthogonalEdgeStyle;rounded=0;orthogonalLoop=1;jettySize=auto;html=1;exitX=1;exitY=0.5;exitDx=0;exitDy=0;endArrow=none;endFill=0;" edge="1" parent="WIyWlLk6GJQsqaUBKTNV-1" source="4dJDkmnBJsWm2NZpvlQx-43">
          <mxGeometry relative="1" as="geometry">
            <mxPoint x="120" y="360" as="targetPoint" />
          </mxGeometry>
        </mxCell>
        <mxCell id="4dJDkmnBJsWm2NZpvlQx-43" value="&lt;font style=&quot;font-size: 10px&quot;&gt;id_detalleventa&lt;/font&gt;" style="ellipse;whiteSpace=wrap;html=1;" vertex="1" parent="WIyWlLk6GJQsqaUBKTNV-1">
          <mxGeometry x="7.5" y="260" width="85" height="50" as="geometry" />
        </mxCell>
        <mxCell id="4dJDkmnBJsWm2NZpvlQx-55" style="edgeStyle=orthogonalEdgeStyle;rounded=0;orthogonalLoop=1;jettySize=auto;html=1;exitX=1;exitY=0.5;exitDx=0;exitDy=0;endArrow=none;endFill=0;" edge="1" parent="WIyWlLk6GJQsqaUBKTNV-1" source="4dJDkmnBJsWm2NZpvlQx-45">
          <mxGeometry relative="1" as="geometry">
            <mxPoint x="120" y="340" as="targetPoint" />
          </mxGeometry>
        </mxCell>
        <mxCell id="4dJDkmnBJsWm2NZpvlQx-45" value="id_venta" style="ellipse;whiteSpace=wrap;html=1;" vertex="1" parent="WIyWlLk6GJQsqaUBKTNV-1">
          <mxGeometry x="15" y="320" width="70" height="40" as="geometry" />
        </mxCell>
        <mxCell id="4dJDkmnBJsWm2NZpvlQx-56" style="edgeStyle=orthogonalEdgeStyle;rounded=0;orthogonalLoop=1;jettySize=auto;html=1;exitX=1;exitY=0.5;exitDx=0;exitDy=0;endArrow=none;endFill=0;" edge="1" parent="WIyWlLk6GJQsqaUBKTNV-1" source="4dJDkmnBJsWm2NZpvlQx-46">
          <mxGeometry relative="1" as="geometry">
            <mxPoint x="120" y="350" as="targetPoint" />
          </mxGeometry>
        </mxCell>
        <mxCell id="4dJDkmnBJsWm2NZpvlQx-46" value="id_producto" style="ellipse;whiteSpace=wrap;html=1;" vertex="1" parent="WIyWlLk6GJQsqaUBKTNV-1">
          <mxGeometry x="15" y="370" width="70" height="40" as="geometry" />
        </mxCell>
        <mxCell id="4dJDkmnBJsWm2NZpvlQx-57" style="edgeStyle=orthogonalEdgeStyle;rounded=0;orthogonalLoop=1;jettySize=auto;html=1;exitX=1;exitY=0.5;exitDx=0;exitDy=0;endArrow=none;endFill=0;" edge="1" parent="WIyWlLk6GJQsqaUBKTNV-1" source="4dJDkmnBJsWm2NZpvlQx-48">
          <mxGeometry relative="1" as="geometry">
            <mxPoint x="120" y="390" as="targetPoint" />
          </mxGeometry>
        </mxCell>
        <mxCell id="4dJDkmnBJsWm2NZpvlQx-48" value="id_cliente" style="ellipse;whiteSpace=wrap;html=1;" vertex="1" parent="WIyWlLk6GJQsqaUBKTNV-1">
          <mxGeometry x="15" y="420" width="70" height="40" as="geometry" />
        </mxCell>
        <mxCell id="4dJDkmnBJsWm2NZpvlQx-80" style="edgeStyle=orthogonalEdgeStyle;rounded=0;orthogonalLoop=1;jettySize=auto;html=1;exitX=1;exitY=0.5;exitDx=0;exitDy=0;entryX=0;entryY=0.5;entryDx=0;entryDy=0;endArrow=none;endFill=0;" edge="1" parent="WIyWlLk6GJQsqaUBKTNV-1" source="4dJDkmnBJsWm2NZpvlQx-59" target="4dJDkmnBJsWm2NZpvlQx-3">
          <mxGeometry relative="1" as="geometry" />
        </mxCell>
        <mxCell id="4dJDkmnBJsWm2NZpvlQx-59" value="tiene" style="rhombus;whiteSpace=wrap;html=1;" vertex="1" parent="WIyWlLk6GJQsqaUBKTNV-1">
          <mxGeometry x="344" y="340" width="106" height="50" as="geometry" />
        </mxCell>
        <mxCell id="4dJDkmnBJsWm2NZpvlQx-63" value="1:1" style="text;html=1;strokeColor=none;fillColor=none;align=center;verticalAlign=middle;whiteSpace=wrap;rounded=0;" vertex="1" parent="WIyWlLk6GJQsqaUBKTNV-1">
          <mxGeometry x="260" y="125" width="40" height="20" as="geometry" />
        </mxCell>
        <mxCell id="4dJDkmnBJsWm2NZpvlQx-65" value="1:N" style="text;html=1;strokeColor=none;fillColor=none;align=center;verticalAlign=middle;whiteSpace=wrap;rounded=0;" vertex="1" parent="WIyWlLk6GJQsqaUBKTNV-1">
          <mxGeometry x="450" y="125" width="40" height="20" as="geometry" />
        </mxCell>
        <mxCell id="4dJDkmnBJsWm2NZpvlQx-66" value="1:1" style="text;html=1;strokeColor=none;fillColor=none;align=center;verticalAlign=middle;whiteSpace=wrap;rounded=0;" vertex="1" parent="WIyWlLk6GJQsqaUBKTNV-1">
          <mxGeometry x="270" y="340" width="40" height="20" as="geometry" />
        </mxCell>
        <mxCell id="4dJDkmnBJsWm2NZpvlQx-74" style="edgeStyle=orthogonalEdgeStyle;rounded=0;orthogonalLoop=1;jettySize=auto;html=1;exitX=0;exitY=0.5;exitDx=0;exitDy=0;endArrow=none;endFill=0;" edge="1" parent="WIyWlLk6GJQsqaUBKTNV-1" source="4dJDkmnBJsWm2NZpvlQx-67">
          <mxGeometry relative="1" as="geometry">
            <mxPoint x="700" y="360" as="targetPoint" />
          </mxGeometry>
        </mxCell>
        <mxCell id="4dJDkmnBJsWm2NZpvlQx-67" value="id_cliente" style="ellipse;whiteSpace=wrap;html=1;" vertex="1" parent="WIyWlLk6GJQsqaUBKTNV-1">
          <mxGeometry x="710" y="320" width="70" height="40" as="geometry" />
        </mxCell>
        <mxCell id="4dJDkmnBJsWm2NZpvlQx-75" style="edgeStyle=orthogonalEdgeStyle;rounded=0;orthogonalLoop=1;jettySize=auto;html=1;exitX=0;exitY=0.5;exitDx=0;exitDy=0;endArrow=none;endFill=0;" edge="1" parent="WIyWlLk6GJQsqaUBKTNV-1" source="4dJDkmnBJsWm2NZpvlQx-68">
          <mxGeometry relative="1" as="geometry">
            <mxPoint x="700" y="360" as="targetPoint" />
          </mxGeometry>
        </mxCell>
        <mxCell id="4dJDkmnBJsWm2NZpvlQx-68" value="nombre" style="ellipse;whiteSpace=wrap;html=1;" vertex="1" parent="WIyWlLk6GJQsqaUBKTNV-1">
          <mxGeometry x="710" y="370" width="70" height="40" as="geometry" />
        </mxCell>
        <mxCell id="4dJDkmnBJsWm2NZpvlQx-76" style="edgeStyle=orthogonalEdgeStyle;rounded=0;orthogonalLoop=1;jettySize=auto;html=1;exitX=0;exitY=0.5;exitDx=0;exitDy=0;endArrow=none;endFill=0;" edge="1" parent="WIyWlLk6GJQsqaUBKTNV-1" source="4dJDkmnBJsWm2NZpvlQx-69">
          <mxGeometry relative="1" as="geometry">
            <mxPoint x="700" y="390" as="targetPoint" />
            <Array as="points">
              <mxPoint x="700" y="440" />
            </Array>
          </mxGeometry>
        </mxCell>
        <mxCell id="4dJDkmnBJsWm2NZpvlQx-69" value="apellido" style="ellipse;whiteSpace=wrap;html=1;" vertex="1" parent="WIyWlLk6GJQsqaUBKTNV-1">
          <mxGeometry x="710" y="420" width="70" height="40" as="geometry" />
        </mxCell>
        <mxCell id="4dJDkmnBJsWm2NZpvlQx-77" style="edgeStyle=orthogonalEdgeStyle;rounded=0;orthogonalLoop=1;jettySize=auto;html=1;exitX=0;exitY=0.5;exitDx=0;exitDy=0;endArrow=none;endFill=0;" edge="1" parent="WIyWlLk6GJQsqaUBKTNV-1" source="4dJDkmnBJsWm2NZpvlQx-70">
          <mxGeometry relative="1" as="geometry">
            <mxPoint x="700" y="440" as="targetPoint" />
            <Array as="points">
              <mxPoint x="700" y="490" />
            </Array>
          </mxGeometry>
        </mxCell>
        <mxCell id="4dJDkmnBJsWm2NZpvlQx-70" value="direccion" style="ellipse;whiteSpace=wrap;html=1;" vertex="1" parent="WIyWlLk6GJQsqaUBKTNV-1">
          <mxGeometry x="710" y="470" width="70" height="40" as="geometry" />
        </mxCell>
        <mxCell id="4dJDkmnBJsWm2NZpvlQx-78" style="edgeStyle=orthogonalEdgeStyle;rounded=0;orthogonalLoop=1;jettySize=auto;html=1;exitX=0;exitY=0.5;exitDx=0;exitDy=0;endArrow=none;endFill=0;" edge="1" parent="WIyWlLk6GJQsqaUBKTNV-1" source="4dJDkmnBJsWm2NZpvlQx-71">
          <mxGeometry relative="1" as="geometry">
            <mxPoint x="700" y="490" as="targetPoint" />
            <Array as="points">
              <mxPoint x="700" y="540" />
            </Array>
          </mxGeometry>
        </mxCell>
        <mxCell id="4dJDkmnBJsWm2NZpvlQx-71" value="rut" style="ellipse;whiteSpace=wrap;html=1;" vertex="1" parent="WIyWlLk6GJQsqaUBKTNV-1">
          <mxGeometry x="710" y="520" width="70" height="40" as="geometry" />
        </mxCell>
        <mxCell id="4dJDkmnBJsWm2NZpvlQx-79" style="edgeStyle=orthogonalEdgeStyle;rounded=0;orthogonalLoop=1;jettySize=auto;html=1;exitX=0;exitY=0.5;exitDx=0;exitDy=0;endArrow=none;endFill=0;" edge="1" parent="WIyWlLk6GJQsqaUBKTNV-1" source="4dJDkmnBJsWm2NZpvlQx-72">
          <mxGeometry relative="1" as="geometry">
            <mxPoint x="700" y="540" as="targetPoint" />
            <Array as="points">
              <mxPoint x="700" y="585" />
            </Array>
          </mxGeometry>
        </mxCell>
        <mxCell id="4dJDkmnBJsWm2NZpvlQx-72" value="email" style="ellipse;whiteSpace=wrap;html=1;" vertex="1" parent="WIyWlLk6GJQsqaUBKTNV-1">
          <mxGeometry x="710" y="565" width="70" height="40" as="geometry" />
        </mxCell>
        <mxCell id="4dJDkmnBJsWm2NZpvlQx-81" value="1:1" style="text;html=1;strokeColor=none;fillColor=none;align=center;verticalAlign=middle;whiteSpace=wrap;rounded=0;" vertex="1" parent="WIyWlLk6GJQsqaUBKTNV-1">
          <mxGeometry x="474" y="340" width="40" height="20" as="geometry" />
        </mxCell>
        <mxCell id="4dJDkmnBJsWm2NZpvlQx-87" style="edgeStyle=orthogonalEdgeStyle;rounded=0;orthogonalLoop=1;jettySize=auto;html=1;exitX=1;exitY=0.5;exitDx=0;exitDy=0;endArrow=none;endFill=0;" edge="1" parent="WIyWlLk6GJQsqaUBKTNV-1" source="4dJDkmnBJsWm2NZpvlQx-82">
          <mxGeometry relative="1" as="geometry">
            <mxPoint x="110" y="555" as="targetPoint" />
          </mxGeometry>
        </mxCell>
        <mxCell id="4dJDkmnBJsWm2NZpvlQx-82" value="id_cliente" style="ellipse;whiteSpace=wrap;html=1;" vertex="1" parent="WIyWlLk6GJQsqaUBKTNV-1">
          <mxGeometry x="15" y="535" width="70" height="40" as="geometry" />
        </mxCell>
        <mxCell id="4dJDkmnBJsWm2NZpvlQx-86" style="edgeStyle=orthogonalEdgeStyle;rounded=0;orthogonalLoop=1;jettySize=auto;html=1;exitX=1;exitY=0.5;exitDx=0;exitDy=0;endArrow=none;endFill=0;" edge="1" parent="WIyWlLk6GJQsqaUBKTNV-1" source="4dJDkmnBJsWm2NZpvlQx-83">
          <mxGeometry relative="1" as="geometry">
            <mxPoint x="110" y="550" as="targetPoint" />
          </mxGeometry>
        </mxCell>
        <mxCell id="4dJDkmnBJsWm2NZpvlQx-83" value="id_paciente" style="ellipse;whiteSpace=wrap;html=1;" vertex="1" parent="WIyWlLk6GJQsqaUBKTNV-1">
          <mxGeometry x="15" y="490" width="70" height="40" as="geometry" />
        </mxCell>
        <mxCell id="4dJDkmnBJsWm2NZpvlQx-88" style="edgeStyle=orthogonalEdgeStyle;rounded=0;orthogonalLoop=1;jettySize=auto;html=1;exitX=1;exitY=0.5;exitDx=0;exitDy=0;endArrow=none;endFill=0;" edge="1" parent="WIyWlLk6GJQsqaUBKTNV-1" source="4dJDkmnBJsWm2NZpvlQx-84">
          <mxGeometry relative="1" as="geometry">
            <mxPoint x="110" y="550" as="targetPoint" />
          </mxGeometry>
        </mxCell>
        <mxCell id="4dJDkmnBJsWm2NZpvlQx-84" value="id_mascota" style="ellipse;whiteSpace=wrap;html=1;fontStyle=1" vertex="1" parent="WIyWlLk6GJQsqaUBKTNV-1">
          <mxGeometry x="15" y="585" width="70" height="40" as="geometry" />
        </mxCell>
        <mxCell id="4dJDkmnBJsWm2NZpvlQx-93" style="edgeStyle=orthogonalEdgeStyle;rounded=0;orthogonalLoop=1;jettySize=auto;html=1;exitX=0;exitY=0.5;exitDx=0;exitDy=0;entryX=0.5;entryY=0;entryDx=0;entryDy=0;endArrow=none;endFill=0;" edge="1" parent="WIyWlLk6GJQsqaUBKTNV-1" source="4dJDkmnBJsWm2NZpvlQx-90" target="4dJDkmnBJsWm2NZpvlQx-4">
          <mxGeometry relative="1" as="geometry" />
        </mxCell>
        <mxCell id="4dJDkmnBJsWm2NZpvlQx-90" value="integra" style="rhombus;whiteSpace=wrap;html=1;" vertex="1" parent="WIyWlLk6GJQsqaUBKTNV-1">
          <mxGeometry x="344" y="430" width="106" height="50" as="geometry" />
        </mxCell>
        <mxCell id="4dJDkmnBJsWm2NZpvlQx-94" value="tiene" style="rhombus;whiteSpace=wrap;html=1;" vertex="1" parent="WIyWlLk6GJQsqaUBKTNV-1">
          <mxGeometry x="147" y="625" width="106" height="50" as="geometry" />
        </mxCell>
        <mxCell id="4dJDkmnBJsWm2NZpvlQx-100" style="edgeStyle=orthogonalEdgeStyle;rounded=0;orthogonalLoop=1;jettySize=auto;html=1;exitX=1;exitY=0.5;exitDx=0;exitDy=0;endArrow=none;endFill=0;" edge="1" parent="WIyWlLk6GJQsqaUBKTNV-1" source="4dJDkmnBJsWm2NZpvlQx-95">
          <mxGeometry relative="1" as="geometry">
            <mxPoint x="110" y="780" as="targetPoint" />
          </mxGeometry>
        </mxCell>
        <mxCell id="4dJDkmnBJsWm2NZpvlQx-95" value="id_mascota" style="ellipse;whiteSpace=wrap;html=1;" vertex="1" parent="WIyWlLk6GJQsqaUBKTNV-1">
          <mxGeometry x="15" y="675" width="70" height="40" as="geometry" />
        </mxCell>
        <mxCell id="4dJDkmnBJsWm2NZpvlQx-101" style="edgeStyle=orthogonalEdgeStyle;rounded=0;orthogonalLoop=1;jettySize=auto;html=1;exitX=1;exitY=0.5;exitDx=0;exitDy=0;endArrow=none;endFill=0;" edge="1" parent="WIyWlLk6GJQsqaUBKTNV-1" source="4dJDkmnBJsWm2NZpvlQx-96">
          <mxGeometry relative="1" as="geometry">
            <mxPoint x="110" y="740" as="targetPoint" />
          </mxGeometry>
        </mxCell>
        <mxCell id="4dJDkmnBJsWm2NZpvlQx-96" value="&lt;font style=&quot;font-size: 9px&quot;&gt;nombre_mascota&lt;/font&gt;" style="ellipse;whiteSpace=wrap;html=1;" vertex="1" parent="WIyWlLk6GJQsqaUBKTNV-1">
          <mxGeometry x="2.5" y="720" width="95" height="40" as="geometry" />
        </mxCell>
        <mxCell id="4dJDkmnBJsWm2NZpvlQx-102" style="edgeStyle=orthogonalEdgeStyle;rounded=0;orthogonalLoop=1;jettySize=auto;html=1;exitX=1;exitY=0.5;exitDx=0;exitDy=0;endArrow=none;endFill=0;" edge="1" parent="WIyWlLk6GJQsqaUBKTNV-1" source="4dJDkmnBJsWm2NZpvlQx-97">
          <mxGeometry relative="1" as="geometry">
            <mxPoint x="110" y="780" as="targetPoint" />
          </mxGeometry>
        </mxCell>
        <mxCell id="4dJDkmnBJsWm2NZpvlQx-97" value="tipo_mascota" style="ellipse;whiteSpace=wrap;html=1;" vertex="1" parent="WIyWlLk6GJQsqaUBKTNV-1">
          <mxGeometry x="12.5" y="770" width="75" height="40" as="geometry" />
        </mxCell>
        <mxCell id="4dJDkmnBJsWm2NZpvlQx-103" style="edgeStyle=orthogonalEdgeStyle;rounded=0;orthogonalLoop=1;jettySize=auto;html=1;exitX=1;exitY=0.5;exitDx=0;exitDy=0;endArrow=none;endFill=0;" edge="1" parent="WIyWlLk6GJQsqaUBKTNV-1" source="4dJDkmnBJsWm2NZpvlQx-98">
          <mxGeometry relative="1" as="geometry">
            <mxPoint x="110" y="790" as="targetPoint" />
            <Array as="points">
              <mxPoint x="110" y="840" />
            </Array>
          </mxGeometry>
        </mxCell>
        <mxCell id="4dJDkmnBJsWm2NZpvlQx-98" value="&lt;font style=&quot;font-size: 9px&quot;&gt;fecha_nacimiento&lt;/font&gt;" style="ellipse;whiteSpace=wrap;html=1;" vertex="1" parent="WIyWlLk6GJQsqaUBKTNV-1">
          <mxGeometry x="7.5" y="820" width="85" height="40" as="geometry" />
        </mxCell>
        <mxCell id="4dJDkmnBJsWm2NZpvlQx-107" value="1:1" style="text;html=1;strokeColor=none;fillColor=none;align=center;verticalAlign=middle;whiteSpace=wrap;rounded=0;" vertex="1" parent="WIyWlLk6GJQsqaUBKTNV-1">
          <mxGeometry x="490" y="430" width="40" height="20" as="geometry" />
        </mxCell>
        <mxCell id="4dJDkmnBJsWm2NZpvlQx-108" value="1:1" style="text;html=1;strokeColor=none;fillColor=none;align=center;verticalAlign=middle;whiteSpace=wrap;rounded=0;" vertex="1" parent="WIyWlLk6GJQsqaUBKTNV-1">
          <mxGeometry x="270" y="430" width="40" height="20" as="geometry" />
        </mxCell>
        <mxCell id="4dJDkmnBJsWm2NZpvlQx-109" value="1:N" style="text;html=1;strokeColor=none;fillColor=none;align=center;verticalAlign=middle;whiteSpace=wrap;rounded=0;" vertex="1" parent="WIyWlLk6GJQsqaUBKTNV-1">
          <mxGeometry x="200" y="595" width="40" height="20" as="geometry" />
        </mxCell>
        <mxCell id="4dJDkmnBJsWm2NZpvlQx-110" value="1:1" style="text;html=1;strokeColor=none;fillColor=none;align=center;verticalAlign=middle;whiteSpace=wrap;rounded=0;" vertex="1" parent="WIyWlLk6GJQsqaUBKTNV-1">
          <mxGeometry x="200" y="715" width="40" height="20" as="geometry" />
        </mxCell>
        <mxCell id="4dJDkmnBJsWm2NZpvlQx-117" style="edgeStyle=orthogonalEdgeStyle;rounded=0;orthogonalLoop=1;jettySize=auto;html=1;exitX=0;exitY=0.5;exitDx=0;exitDy=0;endArrow=none;endFill=0;" edge="1" parent="WIyWlLk6GJQsqaUBKTNV-1" source="4dJDkmnBJsWm2NZpvlQx-111">
          <mxGeometry relative="1" as="geometry">
            <mxPoint x="670" y="640" as="targetPoint" />
          </mxGeometry>
        </mxCell>
        <mxCell id="4dJDkmnBJsWm2NZpvlQx-111" value="id_consulta" style="ellipse;whiteSpace=wrap;html=1;" vertex="1" parent="WIyWlLk6GJQsqaUBKTNV-1">
          <mxGeometry x="690" y="620" width="70" height="40" as="geometry" />
        </mxCell>
        <mxCell id="4dJDkmnBJsWm2NZpvlQx-118" style="edgeStyle=orthogonalEdgeStyle;rounded=0;orthogonalLoop=1;jettySize=auto;html=1;exitX=0;exitY=0.5;exitDx=0;exitDy=0;endArrow=none;endFill=0;" edge="1" parent="WIyWlLk6GJQsqaUBKTNV-1" source="4dJDkmnBJsWm2NZpvlQx-112">
          <mxGeometry relative="1" as="geometry">
            <mxPoint x="680" y="640" as="targetPoint" />
            <Array as="points">
              <mxPoint x="680" y="690" />
            </Array>
          </mxGeometry>
        </mxCell>
        <mxCell id="4dJDkmnBJsWm2NZpvlQx-112" value="id_paciente" style="ellipse;whiteSpace=wrap;html=1;" vertex="1" parent="WIyWlLk6GJQsqaUBKTNV-1">
          <mxGeometry x="690" y="670" width="70" height="40" as="geometry" />
        </mxCell>
        <mxCell id="4dJDkmnBJsWm2NZpvlQx-119" style="edgeStyle=orthogonalEdgeStyle;rounded=0;orthogonalLoop=1;jettySize=auto;html=1;exitX=0;exitY=0.5;exitDx=0;exitDy=0;endArrow=none;endFill=0;" edge="1" parent="WIyWlLk6GJQsqaUBKTNV-1" source="4dJDkmnBJsWm2NZpvlQx-113">
          <mxGeometry relative="1" as="geometry">
            <mxPoint x="680" y="690" as="targetPoint" />
            <Array as="points">
              <mxPoint x="680" y="735" />
            </Array>
          </mxGeometry>
        </mxCell>
        <mxCell id="4dJDkmnBJsWm2NZpvlQx-113" value="id_medico" style="ellipse;whiteSpace=wrap;html=1;" vertex="1" parent="WIyWlLk6GJQsqaUBKTNV-1">
          <mxGeometry x="690" y="715" width="70" height="40" as="geometry" />
        </mxCell>
        <mxCell id="4dJDkmnBJsWm2NZpvlQx-121" style="edgeStyle=orthogonalEdgeStyle;rounded=0;orthogonalLoop=1;jettySize=auto;html=1;exitX=0;exitY=0.5;exitDx=0;exitDy=0;endArrow=none;endFill=0;" edge="1" parent="WIyWlLk6GJQsqaUBKTNV-1" source="4dJDkmnBJsWm2NZpvlQx-114">
          <mxGeometry relative="1" as="geometry">
            <mxPoint x="680" y="730" as="targetPoint" />
            <Array as="points">
              <mxPoint x="680" y="780" />
            </Array>
          </mxGeometry>
        </mxCell>
        <mxCell id="4dJDkmnBJsWm2NZpvlQx-114" value="fecha" style="ellipse;whiteSpace=wrap;html=1;" vertex="1" parent="WIyWlLk6GJQsqaUBKTNV-1">
          <mxGeometry x="690" y="760" width="70" height="40" as="geometry" />
        </mxCell>
        <mxCell id="4dJDkmnBJsWm2NZpvlQx-122" style="edgeStyle=orthogonalEdgeStyle;rounded=0;orthogonalLoop=1;jettySize=auto;html=1;exitX=0;exitY=0.5;exitDx=0;exitDy=0;endArrow=none;endFill=0;" edge="1" parent="WIyWlLk6GJQsqaUBKTNV-1" source="4dJDkmnBJsWm2NZpvlQx-115">
          <mxGeometry relative="1" as="geometry">
            <mxPoint x="680" y="780" as="targetPoint" />
            <Array as="points">
              <mxPoint x="680" y="830" />
            </Array>
          </mxGeometry>
        </mxCell>
        <mxCell id="4dJDkmnBJsWm2NZpvlQx-115" value="hora" style="ellipse;whiteSpace=wrap;html=1;" vertex="1" parent="WIyWlLk6GJQsqaUBKTNV-1">
          <mxGeometry x="690" y="810" width="70" height="40" as="geometry" />
        </mxCell>
        <mxCell id="4dJDkmnBJsWm2NZpvlQx-123" value="agenda" style="rhombus;whiteSpace=wrap;html=1;" vertex="1" parent="WIyWlLk6GJQsqaUBKTNV-1">
          <mxGeometry x="350" y="615" width="106" height="50" as="geometry" />
        </mxCell>
        <mxCell id="4dJDkmnBJsWm2NZpvlQx-126" value="1:N" style="text;html=1;strokeColor=none;fillColor=none;align=center;verticalAlign=middle;whiteSpace=wrap;rounded=0;" vertex="1" parent="WIyWlLk6GJQsqaUBKTNV-1">
          <mxGeometry x="300" y="535" width="40" height="20" as="geometry" />
        </mxCell>
        <mxCell id="4dJDkmnBJsWm2NZpvlQx-127" value="1:1" style="text;html=1;strokeColor=none;fillColor=none;align=center;verticalAlign=middle;whiteSpace=wrap;rounded=0;" vertex="1" parent="WIyWlLk6GJQsqaUBKTNV-1">
          <mxGeometry x="474" y="620" width="40" height="20" as="geometry" />
        </mxCell>
        <mxCell id="4dJDkmnBJsWm2NZpvlQx-128" value="id_medico" style="ellipse;whiteSpace=wrap;html=1;" vertex="1" parent="WIyWlLk6GJQsqaUBKTNV-1">
          <mxGeometry x="690" y="880" width="70" height="40" as="geometry" />
        </mxCell>
        <mxCell id="4dJDkmnBJsWm2NZpvlQx-134" style="edgeStyle=orthogonalEdgeStyle;rounded=0;orthogonalLoop=1;jettySize=auto;html=1;exitX=0;exitY=0.5;exitDx=0;exitDy=0;endArrow=none;endFill=0;" edge="1" parent="WIyWlLk6GJQsqaUBKTNV-1" source="4dJDkmnBJsWm2NZpvlQx-130">
          <mxGeometry relative="1" as="geometry">
            <mxPoint x="670" y="900" as="targetPoint" />
          </mxGeometry>
        </mxCell>
        <mxCell id="4dJDkmnBJsWm2NZpvlQx-130" value="nombre" style="ellipse;whiteSpace=wrap;html=1;" vertex="1" parent="WIyWlLk6GJQsqaUBKTNV-1">
          <mxGeometry x="690" y="925" width="70" height="40" as="geometry" />
        </mxCell>
        <mxCell id="4dJDkmnBJsWm2NZpvlQx-135" style="edgeStyle=orthogonalEdgeStyle;rounded=0;orthogonalLoop=1;jettySize=auto;html=1;exitX=0;exitY=0.5;exitDx=0;exitDy=0;endArrow=none;endFill=0;" edge="1" parent="WIyWlLk6GJQsqaUBKTNV-1" source="4dJDkmnBJsWm2NZpvlQx-131">
          <mxGeometry relative="1" as="geometry">
            <mxPoint x="670" y="940" as="targetPoint" />
          </mxGeometry>
        </mxCell>
        <mxCell id="4dJDkmnBJsWm2NZpvlQx-131" value="rut" style="ellipse;whiteSpace=wrap;html=1;" vertex="1" parent="WIyWlLk6GJQsqaUBKTNV-1">
          <mxGeometry x="690" y="970" width="70" height="40" as="geometry" />
        </mxCell>
        <mxCell id="4dJDkmnBJsWm2NZpvlQx-136" style="edgeStyle=orthogonalEdgeStyle;rounded=0;orthogonalLoop=1;jettySize=auto;html=1;exitX=0;exitY=0.5;exitDx=0;exitDy=0;endArrow=none;endFill=0;" edge="1" parent="WIyWlLk6GJQsqaUBKTNV-1" source="4dJDkmnBJsWm2NZpvlQx-132">
          <mxGeometry relative="1" as="geometry">
            <mxPoint x="670" y="990" as="targetPoint" />
            <Array as="points">
              <mxPoint x="670" y="1040" />
            </Array>
          </mxGeometry>
        </mxCell>
        <mxCell id="4dJDkmnBJsWm2NZpvlQx-132" value="id_especialidad" style="ellipse;whiteSpace=wrap;html=1;" vertex="1" parent="WIyWlLk6GJQsqaUBKTNV-1">
          <mxGeometry x="675" y="1020" width="100" height="40" as="geometry" />
        </mxCell>
        <mxCell id="4dJDkmnBJsWm2NZpvlQx-137" value="tiene" style="rhombus;whiteSpace=wrap;html=1;" vertex="1" parent="WIyWlLk6GJQsqaUBKTNV-1">
          <mxGeometry x="537" y="750" width="106" height="50" as="geometry" />
        </mxCell>
        <mxCell id="4dJDkmnBJsWm2NZpvlQx-140" value="1:1" style="text;html=1;strokeColor=none;fillColor=none;align=center;verticalAlign=middle;whiteSpace=wrap;rounded=0;" vertex="1" parent="WIyWlLk6GJQsqaUBKTNV-1">
          <mxGeometry x="590" y="700" width="40" height="20" as="geometry" />
        </mxCell>
        <mxCell id="4dJDkmnBJsWm2NZpvlQx-141" value="1:N" style="text;html=1;strokeColor=none;fillColor=none;align=center;verticalAlign=middle;whiteSpace=wrap;rounded=0;" vertex="1" parent="WIyWlLk6GJQsqaUBKTNV-1">
          <mxGeometry x="590" y="840" width="40" height="20" as="geometry" />
        </mxCell>
        <mxCell id="4dJDkmnBJsWm2NZpvlQx-146" style="edgeStyle=orthogonalEdgeStyle;rounded=0;orthogonalLoop=1;jettySize=auto;html=1;exitX=1;exitY=0.5;exitDx=0;exitDy=0;endArrow=none;endFill=0;" edge="1" parent="WIyWlLk6GJQsqaUBKTNV-1" source="4dJDkmnBJsWm2NZpvlQx-142">
          <mxGeometry relative="1" as="geometry">
            <mxPoint x="250" y="900" as="targetPoint" />
          </mxGeometry>
        </mxCell>
        <mxCell id="4dJDkmnBJsWm2NZpvlQx-142" value="id_especialidad" style="ellipse;whiteSpace=wrap;html=1;" vertex="1" parent="WIyWlLk6GJQsqaUBKTNV-1">
          <mxGeometry x="120" y="880" width="100" height="40" as="geometry" />
        </mxCell>
        <mxCell id="4dJDkmnBJsWm2NZpvlQx-147" style="edgeStyle=orthogonalEdgeStyle;rounded=0;orthogonalLoop=1;jettySize=auto;html=1;exitX=1;exitY=0.5;exitDx=0;exitDy=0;endArrow=none;endFill=0;" edge="1" parent="WIyWlLk6GJQsqaUBKTNV-1" source="4dJDkmnBJsWm2NZpvlQx-144">
          <mxGeometry relative="1" as="geometry">
            <mxPoint x="240" y="900" as="targetPoint" />
          </mxGeometry>
        </mxCell>
        <mxCell id="4dJDkmnBJsWm2NZpvlQx-144" value="&lt;font style=&quot;font-size: 9px&quot;&gt;nombre_especialidad&lt;/font&gt;" style="ellipse;whiteSpace=wrap;html=1;" vertex="1" parent="WIyWlLk6GJQsqaUBKTNV-1">
          <mxGeometry x="122.5" y="930" width="95" height="40" as="geometry" />
        </mxCell>
        <mxCell id="4dJDkmnBJsWm2NZpvlQx-148" value="tiene" style="rhombus;whiteSpace=wrap;html=1;" vertex="1" parent="WIyWlLk6GJQsqaUBKTNV-1">
          <mxGeometry x="390" y="875" width="106" height="50" as="geometry" />
        </mxCell>
        <mxCell id="4dJDkmnBJsWm2NZpvlQx-151" value="1:N" style="text;html=1;strokeColor=none;fillColor=none;align=center;verticalAlign=middle;whiteSpace=wrap;rounded=0;" vertex="1" parent="WIyWlLk6GJQsqaUBKTNV-1">
          <mxGeometry x="353" y="880" width="40" height="20" as="geometry" />
        </mxCell>
        <mxCell id="4dJDkmnBJsWm2NZpvlQx-152" value="1:1" style="text;html=1;strokeColor=none;fillColor=none;align=center;verticalAlign=middle;whiteSpace=wrap;rounded=0;" vertex="1" parent="WIyWlLk6GJQsqaUBKTNV-1">
          <mxGeometry x="496" y="880" width="40" height="20" as="geometry" />
        </mxCell>
      </root>
    </mxGraphModel>
  </diagram>
</mxfile>
